<svg width="64" height="77" viewBox="0 0 64 77" fill="none" xmlns="http://www.w3.org/2000/svg">
<g clip-path="url(#clip0_2009_1299)">
<path fill-rule="evenodd" clip-rule="evenodd" d="M11.8968 47.3156C18.0155 45.0151 25.5927 44 31.9998 44C38.4073 44 45.9845 45.0151 52.1031 47.3156C57.9833 49.5268 64 53.5603 64 60.2051C64 63.6495 62.9508 66.6211 60.9175 69.0544C58.9176 71.4478 56.1585 73.0911 53.1331 74.2272C47.1977 76.4561 39.4969 77 31.9998 77C24.5031 77 16.8022 76.4561 10.8669 74.2272C7.8415 73.0911 5.0823 71.4478 3.0824 69.0544C1.049 66.6211 0 63.6495 0 60.2051C0 53.5603 6.0167 49.5268 11.8968 47.3156ZM14.7922 53.5891C9.5799 55.549 7.5294 57.9188 7.5294 60.2051C7.5294 62.3428 8.1533 63.8368 9.0936 64.962C10.0673 66.1272 11.5822 67.1351 13.7592 67.9527C18.2286 69.6312 24.6454 70.2038 31.9998 70.2038C39.3546 70.2038 45.771 69.6312 50.2407 67.9527C52.4176 67.1351 53.9327 66.1272 54.9063 64.962C55.8465 63.8368 56.4705 62.3428 56.4705 60.2051C56.4705 57.9188 54.42 55.549 49.2078 53.5891C44.2339 51.719 37.6935 50.7962 31.9998 50.7962C26.3065 50.7962 19.766 51.719 14.7922 53.5891Z" fill="white"/>
<path fill-rule="evenodd" clip-rule="evenodd" d="M14 18.4999C14 8.2664 22.0746 0 31.9998 0C41.9253 0 50 8.2664 50 18.4999C50 28.7335 41.9253 37 31.9998 37C22.0746 37 14 28.7335 14 18.4999ZM31.9998 7.8168C26.2287 7.8168 21.579 12.6161 21.579 18.4999C21.579 24.3837 26.2287 29.1831 31.9998 29.1831C37.7713 29.1831 42.421 24.3837 42.421 18.4999C42.421 12.6161 37.7713 7.8168 31.9998 7.8168Z" fill="white"/>
</g>
<defs>
<clipPath id="clip0_2009_1299">
<rect width="64" height="77" fill="white"/>
</clipPath>
</defs>
</svg>
