<svg width="70" height="70" viewBox="0 0 70 70" fill="none" xmlns="http://www.w3.org/2000/svg">
<path d="M31.3289 7.73599C26.9828 7.73599 23.0507 8.82251 19.5324 10.9955C16.0142 13.1686 13.1686 16.0142 10.9955 19.5325C8.82251 23.0507 7.78773 26.9311 7.89121 31.1737C7.99469 35.4163 9.0812 39.2967 11.1508 42.8149C13.2203 46.3332 16.0142 49.1788 19.5324 51.3518C23.0507 53.5249 26.9311 54.5596 31.1737 54.4562C35.4163 54.3527 39.2967 53.2662 42.8149 51.1966C46.3332 49.1271 49.1788 46.3332 51.3518 42.8149C53.5249 39.2967 54.6114 35.4163 54.6114 31.1737C54.6114 26.9311 53.5249 23.0507 51.3518 19.5325C49.1788 16.0142 46.3332 13.1686 42.8149 10.9955C39.2967 8.82251 35.468 7.73599 31.3289 7.73599ZM50.2653 55.5427C45.9193 58.854 41.1593 60.9235 35.9854 61.7513C30.8115 62.5792 25.7411 62.1135 20.7742 60.3544C15.8073 58.5953 11.5129 55.6979 7.89121 51.6623C4.26949 47.6266 1.8895 43.0219 0.751248 37.848C-0.387007 32.6741 -0.23179 27.552 1.2169 22.4816C2.66559 17.4112 5.30427 12.9616 9.13294 9.13294C12.9616 5.30427 17.4112 2.66559 22.4816 1.2169C27.552 -0.231789 32.6741 -0.387009 37.848 0.751251C43.0219 1.8895 47.6266 4.26949 51.6623 7.89121C55.6979 11.5129 58.5953 15.8073 60.3544 20.7742C62.1135 25.7411 62.5792 30.8115 61.7514 35.9854C60.9235 41.1593 58.854 45.9193 55.5427 50.2653L68.8913 63.3035C69.9261 64.3383 70.2365 65.58 69.8226 67.0287C69.4087 68.4774 68.4774 69.4087 67.0287 69.8226C65.58 70.2365 64.3383 69.9261 63.3035 68.8913L50.2653 55.5427Z" fill="white"/>
</svg>
