<svg width="60" height="60" viewBox="0 0 60 60" fill="none" xmlns="http://www.w3.org/2000/svg">
<path fill-rule="evenodd" clip-rule="evenodd" d="M13.6917 18.1683H50.0227C51.3992 18.1683 52.4963 18.1688 53.4352 18.1957C53.4835 18.1969 53.5307 18.1985 53.5772 18.2C53.5633 18.2473 53.5491 18.2953 53.5347 18.3444C53.2519 19.2998 52.894 20.4061 52.4447 21.7938L47.9676 35.6171C47.6763 36.5167 47.4493 37.2167 47.2415 37.8152C47.1264 38.1476 47.0292 38.4126 46.9462 38.6259C46.7298 38.64 46.4635 38.6514 46.1311 38.6592C45.5329 38.673 44.8384 38.6732 43.9465 38.6732H20.7374C19.7044 38.6732 18.8939 38.673 18.1961 38.6554C17.805 38.6456 17.4903 38.631 17.2341 38.6129C17.1716 38.3474 17.102 38.0198 17.023 37.6112C16.8819 36.882 16.7366 36.0313 16.5519 34.9474L13.6917 18.1683ZM51.833 42.2987C52.3864 41.2384 52.8631 39.7665 53.5418 37.6711L58.0189 23.8477C59.7855 18.3927 60.6689 15.6652 59.4041 13.7715C58.139 11.8779 55.4337 11.8779 50.0227 11.8779H13.7648L12.4733 4.57706C12.4334 4.3503 12.3736 4.01067 12.2966 3.70333C12.2018 3.32478 12.0254 2.74866 11.6421 2.15339C11.1528 1.39344 10.4747 0.793872 9.68388 0.421912C9.06442 0.130568 8.50093 0.052544 8.13463 0.0233065C7.83715 -0.000395458 7.51319 -0.000144258 7.2969 3.18716e-05L3.52487 5.70671e-05C1.57812 5.70671e-05 0 1.68335 0 3.75982C0 5.83626 1.57812 7.51955 3.52487 7.51955H5.81969L7.54466 17.271L10.7496 36.0726C11.2764 39.1634 11.6117 41.1302 12.2984 42.4573C12.5562 42.9552 12.8635 43.3631 13.249 43.7063C14.1004 44.4641 15.1744 44.7653 16.7803 44.8848C17.8387 44.9636 19.1284 44.9636 20.7374 44.9636H43.9465C45.5586 44.9636 46.799 44.9636 47.797 44.8649C48.9617 44.7497 49.7967 44.4999 50.5087 43.9589C51.0441 43.5518 51.4562 43.0206 51.833 42.2987ZM52.4154 50.0265C51.4846 48.6716 49.9293 47.9689 47.797 47.9689C46.1708 47.9689 44.8804 48.3775 43.9465 49.1726C43.328 49.6989 42.8659 50.3949 42.5663 51.2539C42.295 52.0319 42.1572 52.9438 42.1572 53.9844C42.1572 57.9081 44.1182 60 47.797 60C51.4758 60 53.4368 57.9081 53.4368 53.9844C53.4368 52.3348 53.0903 51.0093 52.4154 50.0265ZM22.011 51.2539C21.7289 50.4452 21.3026 49.7807 20.7374 49.2664C19.7962 48.4097 18.4693 47.9689 16.7803 47.9689C14.5638 47.9689 12.9708 48.7282 12.0547 50.1901C11.4503 51.1545 11.1405 52.4247 11.1405 53.9844C11.1405 57.9081 13.1016 60 16.7803 60C20.4591 60 22.4201 57.9081 22.4201 53.9844C22.4201 52.9438 22.2823 52.0319 22.011 51.2539Z" fill="white"/>
</svg>
