<svg width="60" height="60" viewBox="0 0 60 60" fill="none" xmlns="http://www.w3.org/2000/svg">
<path d="M56.6601 60C57.5468 60 58.3448 59.5333 59.0542 58.6C59.7635 57.6667 60.0739 56.4667 59.9852 55C59.8966 53.5333 59.5419 52.3333 58.9212 51.4C58.3005 50.4667 57.5468 50 56.6601 50H3.45813C2.57143 50 1.7734 50.4667 1.06404 51.4C0.354679 52.3333 0 53.5333 0 55C0 56.4667 0.354679 57.6667 1.06404 58.6C1.7734 59.5333 2.57143 60 3.45813 60H56.6601ZM56.6601 34.8C57.5468 35.0667 58.3448 34.6667 59.0542 33.6C59.7635 32.5333 60.0739 31.3333 59.9852 30C59.8966 28.6667 59.5419 27.4667 58.9212 26.4C58.3005 25.3333 57.5468 24.9333 56.6601 25.2H3.45813C2.57143 24.9333 1.81774 25.3333 1.19705 26.4C0.576355 27.4667 0.221672 28.6667 0.133003 30C0.0443344 31.3333 0.354679 32.5333 1.06404 33.6C1.7734 34.6667 2.57143 35.0667 3.45813 34.8H56.6601ZM56.6601 10C57.5468 10 58.3448 9.53333 59.0542 8.6C59.7635 7.66666 60.0739 6.46667 59.9852 5C59.8966 3.53333 59.5419 2.33333 58.9212 1.4C58.3005 0.466667 57.5468 0 56.6601 0H3.45813C2.57143 0 1.7734 0.466667 1.06404 1.4C0.354679 2.33333 0 3.53333 0 5C0 6.46667 0.354679 7.66666 1.06404 8.6C1.7734 9.53333 2.57143 10 3.45813 10H56.6601Z" fill="white"/>
</svg>
